<mxfile host="65bd71144e">
    <diagram id="piDafpqhtRUU5qUU-vj8" name="Page-1">
        <mxGraphModel dx="916" dy="541" grid="1" gridSize="10" guides="1" tooltips="1" connect="1" arrows="1" fold="1" page="1" pageScale="1" pageWidth="1169" pageHeight="827" math="0" shadow="0">
            <root>
                <mxCell id="0"/>
                <mxCell id="1" parent="0"/>
                <mxCell id="18" value="" style="rounded=1;whiteSpace=wrap;html=1;arcSize=5;" vertex="1" parent="1">
                    <mxGeometry x="795" y="305" width="156" height="185" as="geometry"/>
                </mxCell>
                <mxCell id="16" value="" style="rounded=1;whiteSpace=wrap;html=1;arcSize=5;" vertex="1" parent="1">
                    <mxGeometry x="794" y="182" width="156" height="120" as="geometry"/>
                </mxCell>
                <mxCell id="14" value="" style="rounded=1;whiteSpace=wrap;html=1;arcSize=5;" vertex="1" parent="1">
                    <mxGeometry x="344" y="200" width="366" height="290" as="geometry"/>
                </mxCell>
                <mxCell id="JDbVQdWDWLPik-uImzkJ-9" style="edgeStyle=orthogonalEdgeStyle;rounded=0;orthogonalLoop=1;jettySize=auto;html=1;exitX=1;exitY=0.5;exitDx=0;exitDy=0;entryX=0;entryY=0.5;entryDx=0;entryDy=0;startArrow=classic;startFill=1;" parent="1" source="JDbVQdWDWLPik-uImzkJ-1" target="JDbVQdWDWLPik-uImzkJ-2" edge="1">
                    <mxGeometry relative="1" as="geometry"/>
                </mxCell>
                <mxCell id="JDbVQdWDWLPik-uImzkJ-1" value="User Agent" style="rounded=0;whiteSpace=wrap;html=1;" parent="1" vertex="1">
                    <mxGeometry x="130" y="310" width="120" height="60" as="geometry"/>
                </mxCell>
                <mxCell id="JDbVQdWDWLPik-uImzkJ-17" style="edgeStyle=orthogonalEdgeStyle;rounded=0;orthogonalLoop=1;jettySize=auto;html=1;exitX=1;exitY=0.5;exitDx=0;exitDy=0;entryX=0;entryY=0.5;entryDx=0;entryDy=0;startArrow=classic;startFill=1;" parent="1" source="JDbVQdWDWLPik-uImzkJ-2" target="JDbVQdWDWLPik-uImzkJ-4" edge="1">
                    <mxGeometry relative="1" as="geometry"/>
                </mxCell>
                <mxCell id="2" style="edgeStyle=elbowEdgeStyle;html=1;exitX=1;exitY=0.25;exitDx=0;exitDy=0;entryX=0;entryY=0.5;entryDx=0;entryDy=0;startArrow=classic;startFill=1;rounded=1;" parent="1" source="JDbVQdWDWLPik-uImzkJ-2" target="JDbVQdWDWLPik-uImzkJ-3" edge="1">
                    <mxGeometry relative="1" as="geometry"/>
                </mxCell>
                <mxCell id="JDbVQdWDWLPik-uImzkJ-2" value="Proxy&lt;br&gt;(Nginx)" style="rounded=0;whiteSpace=wrap;html=1;" parent="1" vertex="1">
                    <mxGeometry x="360" y="310" width="120" height="60" as="geometry"/>
                </mxCell>
                <mxCell id="JDbVQdWDWLPik-uImzkJ-3" value="Web Server&lt;br&gt;(Nginx)" style="rounded=0;whiteSpace=wrap;html=1;" parent="1" vertex="1">
                    <mxGeometry x="570" y="223" width="120" height="60" as="geometry"/>
                </mxCell>
                <mxCell id="JDbVQdWDWLPik-uImzkJ-13" style="edgeStyle=orthogonalEdgeStyle;rounded=1;orthogonalLoop=1;jettySize=auto;html=1;exitX=1;exitY=0.75;exitDx=0;exitDy=0;startArrow=classic;startFill=1;entryX=0;entryY=0.25;entryDx=0;entryDy=0;" parent="1" source="JDbVQdWDWLPik-uImzkJ-4" target="JDbVQdWDWLPik-uImzkJ-5" edge="1">
                    <mxGeometry relative="1" as="geometry"/>
                </mxCell>
                <mxCell id="JDbVQdWDWLPik-uImzkJ-15" style="edgeStyle=orthogonalEdgeStyle;rounded=1;orthogonalLoop=1;jettySize=auto;html=1;exitX=1;exitY=0.25;exitDx=0;exitDy=0;entryX=0;entryY=0.5;entryDx=0;entryDy=0;startArrow=classic;startFill=1;" parent="1" source="JDbVQdWDWLPik-uImzkJ-4" target="JDbVQdWDWLPik-uImzkJ-6" edge="1">
                    <mxGeometry relative="1" as="geometry"/>
                </mxCell>
                <mxCell id="JDbVQdWDWLPik-uImzkJ-16" style="edgeStyle=orthogonalEdgeStyle;rounded=1;orthogonalLoop=1;jettySize=auto;html=1;exitX=1;exitY=0.5;exitDx=0;exitDy=0;entryX=0;entryY=0.5;entryDx=0;entryDy=0;startArrow=classic;startFill=1;" parent="1" source="JDbVQdWDWLPik-uImzkJ-4" target="JDbVQdWDWLPik-uImzkJ-7" edge="1">
                    <mxGeometry relative="1" as="geometry"/>
                </mxCell>
                <mxCell id="JDbVQdWDWLPik-uImzkJ-4" value="API Server (Express)" style="rounded=0;whiteSpace=wrap;html=1;" parent="1" vertex="1">
                    <mxGeometry x="570" y="310" width="120" height="60" as="geometry"/>
                </mxCell>
                <mxCell id="JDbVQdWDWLPik-uImzkJ-14" style="edgeStyle=orthogonalEdgeStyle;rounded=1;orthogonalLoop=1;jettySize=auto;html=1;exitX=0;exitY=0.75;exitDx=0;exitDy=0;startArrow=classic;startFill=1;" parent="1" source="JDbVQdWDWLPik-uImzkJ-5" target="JDbVQdWDWLPik-uImzkJ-8" edge="1">
                    <mxGeometry relative="1" as="geometry"/>
                </mxCell>
                <mxCell id="JDbVQdWDWLPik-uImzkJ-5" value="Redis PubSub" style="rounded=0;whiteSpace=wrap;html=1;" parent="1" vertex="1">
                    <mxGeometry x="810" y="384" width="120" height="60" as="geometry"/>
                </mxCell>
                <mxCell id="JDbVQdWDWLPik-uImzkJ-6" value="Postgres DB" style="rounded=0;whiteSpace=wrap;html=1;" parent="1" vertex="1">
                    <mxGeometry x="810" y="235" width="120" height="60" as="geometry"/>
                </mxCell>
                <mxCell id="JDbVQdWDWLPik-uImzkJ-7" value="Redis Cache" style="rounded=0;whiteSpace=wrap;html=1;" parent="1" vertex="1">
                    <mxGeometry x="810" y="310" width="120" height="60" as="geometry"/>
                </mxCell>
                <mxCell id="JDbVQdWDWLPik-uImzkJ-8" value="Worker (Express)" style="rounded=0;whiteSpace=wrap;html=1;" parent="1" vertex="1">
                    <mxGeometry x="571" y="399" width="120" height="60" as="geometry"/>
                </mxCell>
                <mxCell id="3" value="PORT : 3000" style="text;html=1;align=center;verticalAlign=middle;resizable=0;points=[];autosize=1;strokeColor=none;fillColor=none;" parent="1" vertex="1">
                    <mxGeometry x="480" y="225" width="90" height="20" as="geometry"/>
                </mxCell>
                <mxCell id="4" value="PORT : 5500" style="text;html=1;align=center;verticalAlign=middle;resizable=0;points=[];autosize=1;strokeColor=none;fillColor=none;" parent="1" vertex="1">
                    <mxGeometry x="481" y="345" width="90" height="20" as="geometry"/>
                </mxCell>
                <mxCell id="5" value="PORT : 5432&lt;span style=&quot;color: rgba(0 , 0 , 0 , 0) ; font-family: monospace ; font-size: 0px&quot;&gt;%3CmxGraphModel%3E%3Croot%3E%3CmxCell%20id%3D%220%22%2F%3E%3CmxCell%20id%3D%221%22%20parent%3D%220%22%2F%3E%3CmxCell%20id%3D%222%22%20value%3D%22PORT%20%3A%203000%22%20style%3D%22text%3Bhtml%3D1%3Balign%3Dcenter%3BverticalAlign%3Dmiddle%3Bresizable%3D0%3Bpoints%3D%5B%5D%3Bautosize%3D1%3BstrokeColor%3Dnone%3BfillColor%3Dnone%3B%22%20vertex%3D%221%22%20parent%3D%221%22%3E%3CmxGeometry%20x%3D%22481%22%20y%3D%22194%22%20width%3D%2290%22%20height%3D%2220%22%20as%3D%22geometry%22%2F%3E%3C%2FmxCell%3E%3C%2Froot%3E%3C%2FmxGraphModel%3E&lt;/span&gt;" style="text;html=1;align=center;verticalAlign=middle;resizable=0;points=[];autosize=1;strokeColor=none;fillColor=none;" parent="1" vertex="1">
                    <mxGeometry x="720" y="243" width="90" height="20" as="geometry"/>
                </mxCell>
                <mxCell id="6" value="PORT : 6379" style="text;html=1;align=center;verticalAlign=middle;resizable=0;points=[];autosize=1;strokeColor=none;fillColor=none;" parent="1" vertex="1">
                    <mxGeometry x="710" y="338" width="90" height="20" as="geometry"/>
                </mxCell>
                <mxCell id="8" value="PORT : 6379" style="text;html=1;align=center;verticalAlign=middle;resizable=0;points=[];autosize=1;strokeColor=none;fillColor=none;" parent="1" vertex="1">
                    <mxGeometry x="706" y="430" width="90" height="20" as="geometry"/>
                </mxCell>
                <mxCell id="9" value="PORT : 80" style="text;html=1;align=center;verticalAlign=middle;resizable=0;points=[];autosize=1;strokeColor=none;fillColor=none;" parent="1" vertex="1">
                    <mxGeometry x="274" y="315" width="70" height="20" as="geometry"/>
                </mxCell>
                <mxCell id="10" value="path : /" style="text;html=1;align=center;verticalAlign=middle;resizable=0;points=[];autosize=1;strokeColor=none;fillColor=none;" parent="1" vertex="1">
                    <mxGeometry x="494" y="208" width="50" height="20" as="geometry"/>
                </mxCell>
                <mxCell id="11" value="path : /api/" style="text;html=1;align=center;verticalAlign=middle;resizable=0;points=[];autosize=1;strokeColor=none;fillColor=none;" parent="1" vertex="1">
                    <mxGeometry x="494" y="361" width="70" height="20" as="geometry"/>
                </mxCell>
                <mxCell id="15" value="Docker Containers on Beanstalk Instance" style="text;html=1;strokeColor=none;fillColor=none;align=center;verticalAlign=middle;whiteSpace=wrap;rounded=0;" vertex="1" parent="1">
                    <mxGeometry x="360" y="425" width="160" height="30" as="geometry"/>
                </mxCell>
                <mxCell id="17" value="RDS postgres" style="text;html=1;strokeColor=none;fillColor=none;align=center;verticalAlign=middle;whiteSpace=wrap;rounded=0;" vertex="1" parent="1">
                    <mxGeometry x="826" y="193" width="88" height="30" as="geometry"/>
                </mxCell>
                <mxCell id="19" value="ElastiCache&lt;br&gt;Redis" style="text;html=1;strokeColor=none;fillColor=none;align=center;verticalAlign=middle;whiteSpace=wrap;rounded=0;" vertex="1" parent="1">
                    <mxGeometry x="829" y="454" width="88" height="30" as="geometry"/>
                </mxCell>
            </root>
        </mxGraphModel>
    </diagram>
</mxfile>